<mxfile host="app.diagrams.net" agent="Mozilla/5.0 (Macintosh; Intel Mac OS X 10_15_7) AppleWebKit/537.36 (KHTML, like Gecko) Chrome/131.0.0.0 Safari/537.36" version="25.0.3">
  <diagram name="第 1 页" id="3uyB18zPnu_GFOLBqv-k">
    <mxGraphModel dx="2074" dy="1045" grid="1" gridSize="10" guides="1" tooltips="1" connect="1" arrows="1" fold="1" page="1" pageScale="1" pageWidth="827" pageHeight="1169" math="0" shadow="0">
      <root>
        <mxCell id="0" />
        <mxCell id="1" parent="0" />
        <mxCell id="doDWfjvMlDokcpQLiwFD-1" value="" style="rounded=0;whiteSpace=wrap;html=1;sketch=1;hachureGap=4;jiggle=2;curveFitting=1;fontFamily=Architects Daughter;fontSource=https%3A%2F%2Ffonts.googleapis.com%2Fcss%3Ffamily%3DArchitects%2BDaughter;" vertex="1" parent="1">
          <mxGeometry x="80" y="120" width="680" height="960" as="geometry" />
        </mxCell>
        <mxCell id="doDWfjvMlDokcpQLiwFD-6" value="" style="edgeStyle=orthogonalEdgeStyle;rounded=0;hachureGap=4;orthogonalLoop=1;jettySize=auto;html=1;fontFamily=Architects Daughter;fontSource=https%3A%2F%2Ffonts.googleapis.com%2Fcss%3Ffamily%3DArchitects%2BDaughter;flowAnimation=1;" edge="1" parent="1" source="doDWfjvMlDokcpQLiwFD-2" target="doDWfjvMlDokcpQLiwFD-5">
          <mxGeometry relative="1" as="geometry" />
        </mxCell>
        <mxCell id="doDWfjvMlDokcpQLiwFD-2" value="" style="rounded=1;whiteSpace=wrap;html=1;hachureGap=4;fontFamily=Architects Daughter;fontSource=https%3A%2F%2Ffonts.googleapis.com%2Fcss%3Ffamily%3DArchitects%2BDaughter;" vertex="1" parent="1">
          <mxGeometry x="110" y="130" width="100" height="120" as="geometry" />
        </mxCell>
        <mxCell id="doDWfjvMlDokcpQLiwFD-3" value="&lt;font face=&quot;Helvetica&quot; style=&quot;font-size: 20px;&quot;&gt;GitOps工作流-简易可视化指南&lt;/font&gt;" style="text;html=1;align=center;verticalAlign=middle;resizable=0;points=[];autosize=1;strokeColor=none;fillColor=none;fontFamily=Architects Daughter;fontSource=https%3A%2F%2Ffonts.googleapis.com%2Fcss%3Ffamily%3DArchitects%2BDaughter;" vertex="1" parent="1">
          <mxGeometry x="265" y="25" width="290" height="40" as="geometry" />
        </mxCell>
        <mxCell id="doDWfjvMlDokcpQLiwFD-83" style="edgeStyle=orthogonalEdgeStyle;rounded=0;hachureGap=4;orthogonalLoop=1;jettySize=auto;html=1;exitX=0.5;exitY=1;exitDx=0;exitDy=0;entryX=0.5;entryY=0;entryDx=0;entryDy=0;fontFamily=Architects Daughter;fontSource=https%3A%2F%2Ffonts.googleapis.com%2Fcss%3Ffamily%3DArchitects%2BDaughter;flowAnimation=1;" edge="1" parent="1" source="doDWfjvMlDokcpQLiwFD-5" target="doDWfjvMlDokcpQLiwFD-16">
          <mxGeometry relative="1" as="geometry" />
        </mxCell>
        <mxCell id="doDWfjvMlDokcpQLiwFD-5" value="" style="rounded=1;whiteSpace=wrap;html=1;hachureGap=4;fontFamily=Architects Daughter;fontSource=https%3A%2F%2Ffonts.googleapis.com%2Fcss%3Ffamily%3DArchitects%2BDaughter;" vertex="1" parent="1">
          <mxGeometry x="405" y="130" width="100" height="120" as="geometry" />
        </mxCell>
        <mxCell id="doDWfjvMlDokcpQLiwFD-7" value="准备代码" style="text;html=1;align=center;verticalAlign=middle;resizable=0;points=[];autosize=1;strokeColor=none;fillColor=none;fontFamily=Architects Daughter;fontSource=https%3A%2F%2Ffonts.googleapis.com%2Fcss%3Ffamily%3DArchitects%2BDaughter;" vertex="1" parent="1">
          <mxGeometry x="125" y="140" width="70" height="30" as="geometry" />
        </mxCell>
        <mxCell id="doDWfjvMlDokcpQLiwFD-8" value="" style="sketch=0;outlineConnect=0;fontColor=#232F3E;gradientColor=none;fillColor=#232F3D;strokeColor=none;dashed=0;verticalLabelPosition=bottom;verticalAlign=top;align=center;html=1;fontSize=12;fontStyle=0;aspect=fixed;pointerEvents=1;shape=mxgraph.aws4.source_code;hachureGap=4;jiggle=2;curveFitting=1;fontFamily=Architects Daughter;fontSource=https%3A%2F%2Ffonts.googleapis.com%2Fcss%3Ffamily%3DArchitects%2BDaughter;" vertex="1" parent="1">
          <mxGeometry x="138.81" y="180" width="42.38" height="58" as="geometry" />
        </mxCell>
        <mxCell id="doDWfjvMlDokcpQLiwFD-11" value="&lt;span style=&quot;font-family: Helvetica; font-size: 11px; background-color: rgb(255, 255, 255);&quot;&gt;提交代码到Git仓库&lt;/span&gt;" style="text;html=1;align=center;verticalAlign=middle;resizable=0;points=[];autosize=1;strokeColor=none;fillColor=none;fontFamily=Architects Daughter;fontSource=https%3A%2F%2Ffonts.googleapis.com%2Fcss%3Ffamily%3DArchitects%2BDaughter;" vertex="1" parent="1">
          <mxGeometry x="240" y="160" width="110" height="30" as="geometry" />
        </mxCell>
        <mxCell id="doDWfjvMlDokcpQLiwFD-12" value="&lt;font face=&quot;Helvetica&quot;&gt;APP REPO&lt;/font&gt;" style="text;html=1;align=center;verticalAlign=middle;resizable=0;points=[];autosize=1;strokeColor=none;fillColor=none;fontFamily=Architects Daughter;fontSource=https%3A%2F%2Ffonts.googleapis.com%2Fcss%3Ffamily%3DArchitects%2BDaughter;" vertex="1" parent="1">
          <mxGeometry x="415" y="140" width="80" height="30" as="geometry" />
        </mxCell>
        <mxCell id="doDWfjvMlDokcpQLiwFD-13" value="" style="image;sketch=0;aspect=fixed;html=1;points=[];align=center;fontSize=12;image=img/lib/mscae/Azure_Repos.svg;hachureGap=4;jiggle=2;curveFitting=1;fontFamily=Architects Daughter;fontSource=https%3A%2F%2Ffonts.googleapis.com%2Fcss%3Ffamily%3DArchitects%2BDaughter;" vertex="1" parent="1">
          <mxGeometry x="432.5" y="184" width="45" height="50" as="geometry" />
        </mxCell>
        <mxCell id="doDWfjvMlDokcpQLiwFD-15" value="" style="rounded=1;whiteSpace=wrap;html=1;hachureGap=4;fontFamily=Architects Daughter;fontSource=https%3A%2F%2Ffonts.googleapis.com%2Fcss%3Ffamily%3DArchitects%2BDaughter;dashed=1;" vertex="1" parent="1">
          <mxGeometry x="260" y="320" width="390" height="330" as="geometry" />
        </mxCell>
        <mxCell id="doDWfjvMlDokcpQLiwFD-16" value="&lt;span style=&quot;text-wrap-mode: nowrap;&quot;&gt;&lt;b&gt;&lt;font style=&quot;font-size: 22px;&quot; face=&quot;Helvetica&quot;&gt;构建应用&lt;/font&gt;&lt;/b&gt;&lt;/span&gt;" style="rounded=1;whiteSpace=wrap;html=1;hachureGap=4;fontFamily=Architects Daughter;fontSource=https%3A%2F%2Ffonts.googleapis.com%2Fcss%3Ffamily%3DArchitects%2BDaughter;" vertex="1" parent="1">
          <mxGeometry x="260" y="320" width="390" height="50" as="geometry" />
        </mxCell>
        <mxCell id="doDWfjvMlDokcpQLiwFD-18" value="" style="dashed=0;outlineConnect=0;html=1;align=center;labelPosition=center;verticalLabelPosition=bottom;verticalAlign=top;shape=mxgraph.weblogos.github;hachureGap=4;fontFamily=Architects Daughter;fontSource=https%3A%2F%2Ffonts.googleapis.com%2Fcss%3Ffamily%3DArchitects%2BDaughter;" vertex="1" parent="1">
          <mxGeometry x="350" y="380" width="40" height="40" as="geometry" />
        </mxCell>
        <mxCell id="doDWfjvMlDokcpQLiwFD-19" value="&lt;font style=&quot;font-size: 15px;&quot; face=&quot;Helvetica&quot;&gt;&lt;b style=&quot;&quot;&gt;GitHub Actions&lt;/b&gt;&lt;/font&gt;" style="text;html=1;align=center;verticalAlign=middle;resizable=0;points=[];autosize=1;strokeColor=none;fillColor=none;fontFamily=Architects Daughter;fontSource=https%3A%2F%2Ffonts.googleapis.com%2Fcss%3Ffamily%3DArchitects%2BDaughter;" vertex="1" parent="1">
          <mxGeometry x="397.5" y="385" width="130" height="30" as="geometry" />
        </mxCell>
        <mxCell id="doDWfjvMlDokcpQLiwFD-21" value="" style="rounded=1;whiteSpace=wrap;html=1;hachureGap=4;fontFamily=Architects Daughter;fontSource=https%3A%2F%2Ffonts.googleapis.com%2Fcss%3Ffamily%3DArchitects%2BDaughter;" vertex="1" parent="1">
          <mxGeometry x="280" y="450" width="100" height="80" as="geometry" />
        </mxCell>
        <mxCell id="doDWfjvMlDokcpQLiwFD-27" value="" style="outlineConnect=0;dashed=0;verticalLabelPosition=bottom;verticalAlign=top;align=center;html=1;shape=mxgraph.aws3.codebuild;fillColor=#759C3E;gradientColor=none;hachureGap=4;fontFamily=Architects Daughter;fontSource=https%3A%2F%2Ffonts.googleapis.com%2Fcss%3Ffamily%3DArchitects%2BDaughter;" vertex="1" parent="1">
          <mxGeometry x="310" y="480" width="40" height="40" as="geometry" />
        </mxCell>
        <mxCell id="doDWfjvMlDokcpQLiwFD-28" value="&lt;font face=&quot;Helvetica&quot;&gt;应用程序构建&lt;/font&gt;" style="text;html=1;align=center;verticalAlign=middle;resizable=0;points=[];autosize=1;strokeColor=none;fillColor=none;fontFamily=Architects Daughter;fontSource=https%3A%2F%2Ffonts.googleapis.com%2Fcss%3Ffamily%3DArchitects%2BDaughter;" vertex="1" parent="1">
          <mxGeometry x="280" y="450" width="100" height="30" as="geometry" />
        </mxCell>
        <mxCell id="doDWfjvMlDokcpQLiwFD-29" value="" style="rounded=1;whiteSpace=wrap;html=1;hachureGap=4;fontFamily=Architects Daughter;fontSource=https%3A%2F%2Ffonts.googleapis.com%2Fcss%3Ffamily%3DArchitects%2BDaughter;" vertex="1" parent="1">
          <mxGeometry x="530" y="450" width="100" height="80" as="geometry" />
        </mxCell>
        <mxCell id="doDWfjvMlDokcpQLiwFD-30" value="" style="rounded=1;whiteSpace=wrap;html=1;hachureGap=4;fontFamily=Architects Daughter;fontSource=https%3A%2F%2Ffonts.googleapis.com%2Fcss%3Ffamily%3DArchitects%2BDaughter;" vertex="1" parent="1">
          <mxGeometry x="405" y="450" width="100" height="80" as="geometry" />
        </mxCell>
        <mxCell id="doDWfjvMlDokcpQLiwFD-31" value="" style="rounded=1;whiteSpace=wrap;html=1;hachureGap=4;fontFamily=Architects Daughter;fontSource=https%3A%2F%2Ffonts.googleapis.com%2Fcss%3Ffamily%3DArchitects%2BDaughter;" vertex="1" parent="1">
          <mxGeometry x="330" y="560" width="100" height="80" as="geometry" />
        </mxCell>
        <mxCell id="doDWfjvMlDokcpQLiwFD-32" value="" style="rounded=1;whiteSpace=wrap;html=1;hachureGap=4;fontFamily=Architects Daughter;fontSource=https%3A%2F%2Ffonts.googleapis.com%2Fcss%3Ffamily%3DArchitects%2BDaughter;" vertex="1" parent="1">
          <mxGeometry x="470" y="560" width="100" height="80" as="geometry" />
        </mxCell>
        <mxCell id="doDWfjvMlDokcpQLiwFD-33" value="" style="verticalLabelPosition=bottom;html=1;verticalAlign=top;align=center;strokeColor=none;fillColor=#00BEF2;shape=mxgraph.azure.code_file;pointerEvents=1;hachureGap=4;fontFamily=Architects Daughter;fontSource=https%3A%2F%2Ffonts.googleapis.com%2Fcss%3Ffamily%3DArchitects%2BDaughter;" vertex="1" parent="1">
          <mxGeometry x="434.25" y="485" width="41.5" height="35" as="geometry" />
        </mxCell>
        <mxCell id="doDWfjvMlDokcpQLiwFD-34" value="&lt;font face=&quot;Helvetica&quot;&gt;代码分析&lt;/font&gt;" style="text;html=1;align=center;verticalAlign=middle;resizable=0;points=[];autosize=1;strokeColor=none;fillColor=none;fontFamily=Architects Daughter;fontSource=https%3A%2F%2Ffonts.googleapis.com%2Fcss%3Ffamily%3DArchitects%2BDaughter;" vertex="1" parent="1">
          <mxGeometry x="420" y="450" width="70" height="30" as="geometry" />
        </mxCell>
        <mxCell id="doDWfjvMlDokcpQLiwFD-35" value="" style="image;aspect=fixed;perimeter=ellipsePerimeter;html=1;align=center;shadow=0;dashed=0;fontColor=#4277BB;labelBackgroundColor=default;fontSize=12;spacingTop=3;image=img/lib/ibm/devops/build_test.svg;sketch=1;hachureGap=4;jiggle=2;curveFitting=1;fontFamily=Architects Daughter;fontSource=https%3A%2F%2Ffonts.googleapis.com%2Fcss%3Ffamily%3DArchitects%2BDaughter;" vertex="1" parent="1">
          <mxGeometry x="560" y="482.5" width="40" height="40" as="geometry" />
        </mxCell>
        <mxCell id="doDWfjvMlDokcpQLiwFD-36" value="&lt;font face=&quot;Helvetica&quot;&gt;单元测试&lt;/font&gt;" style="text;html=1;align=center;verticalAlign=middle;resizable=0;points=[];autosize=1;strokeColor=none;fillColor=none;fontFamily=Architects Daughter;fontSource=https%3A%2F%2Ffonts.googleapis.com%2Fcss%3Ffamily%3DArchitects%2BDaughter;" vertex="1" parent="1">
          <mxGeometry x="545" y="450" width="70" height="30" as="geometry" />
        </mxCell>
        <mxCell id="doDWfjvMlDokcpQLiwFD-37" value="" style="image;aspect=fixed;html=1;points=[];align=center;fontSize=12;image=img/lib/azure2/other/Test_Base.svg;hachureGap=4;fontFamily=Architects Daughter;fontSource=https%3A%2F%2Ffonts.googleapis.com%2Fcss%3Ffamily%3DArchitects%2BDaughter;" vertex="1" parent="1">
          <mxGeometry x="356" y="590" width="49" height="34.59" as="geometry" />
        </mxCell>
        <mxCell id="doDWfjvMlDokcpQLiwFD-38" value="&lt;font face=&quot;Helvetica&quot;&gt;集成测试&lt;/font&gt;" style="text;html=1;align=center;verticalAlign=middle;resizable=0;points=[];autosize=1;strokeColor=none;fillColor=none;fontFamily=Architects Daughter;fontSource=https%3A%2F%2Ffonts.googleapis.com%2Fcss%3Ffamily%3DArchitects%2BDaughter;" vertex="1" parent="1">
          <mxGeometry x="345.5" y="560" width="70" height="30" as="geometry" />
        </mxCell>
        <mxCell id="doDWfjvMlDokcpQLiwFD-39" value="" style="image;aspect=fixed;html=1;points=[];align=center;fontSize=12;image=img/lib/azure2/identity/Entra_Global_Secure_Access.svg;sketch=1;hachureGap=4;jiggle=2;curveFitting=1;fontFamily=Architects Daughter;fontSource=https%3A%2F%2Ffonts.googleapis.com%2Fcss%3Ffamily%3DArchitects%2BDaughter;" vertex="1" parent="1">
          <mxGeometry x="500" y="590" width="44" height="44" as="geometry" />
        </mxCell>
        <mxCell id="doDWfjvMlDokcpQLiwFD-40" value="&lt;font face=&quot;Helvetica&quot;&gt;安全扫描&lt;/font&gt;" style="text;html=1;align=center;verticalAlign=middle;resizable=0;points=[];autosize=1;strokeColor=none;fillColor=none;fontFamily=Architects Daughter;fontSource=https%3A%2F%2Ffonts.googleapis.com%2Fcss%3Ffamily%3DArchitects%2BDaughter;" vertex="1" parent="1">
          <mxGeometry x="487" y="560" width="70" height="30" as="geometry" />
        </mxCell>
        <mxCell id="doDWfjvMlDokcpQLiwFD-41" value="" style="rounded=1;whiteSpace=wrap;html=1;hachureGap=4;fontFamily=Architects Daughter;fontSource=https%3A%2F%2Ffonts.googleapis.com%2Fcss%3Ffamily%3DArchitects%2BDaughter;" vertex="1" parent="1">
          <mxGeometry x="110" y="482.5" width="100" height="120" as="geometry" />
        </mxCell>
        <mxCell id="doDWfjvMlDokcpQLiwFD-42" value="" style="image;aspect=fixed;html=1;points=[];align=center;fontSize=12;image=img/lib/azure2/general/Code.svg;sketch=1;hachureGap=4;jiggle=2;curveFitting=1;fontFamily=Architects Daughter;fontSource=https%3A%2F%2Ffonts.googleapis.com%2Fcss%3Ffamily%3DArchitects%2BDaughter;" vertex="1" parent="1">
          <mxGeometry x="402.69" y="190" width="24.62" height="20" as="geometry" />
        </mxCell>
        <mxCell id="doDWfjvMlDokcpQLiwFD-43" value="" style="verticalLabelPosition=bottom;html=1;verticalAlign=top;align=center;strokeColor=none;fillColor=#00BEF2;shape=mxgraph.azure.cloud_services_configuration_file;pointerEvents=1;hachureGap=4;fontFamily=Architects Daughter;fontSource=https%3A%2F%2Ffonts.googleapis.com%2Fcss%3Ffamily%3DArchitects%2BDaughter;" vertex="1" parent="1">
          <mxGeometry x="136.25" y="535" width="47.5" height="50" as="geometry" />
        </mxCell>
        <mxCell id="doDWfjvMlDokcpQLiwFD-44" value="&lt;font face=&quot;Helvetica&quot;&gt;准备配置&lt;/font&gt;" style="text;html=1;align=center;verticalAlign=middle;resizable=0;points=[];autosize=1;strokeColor=none;fillColor=none;fontFamily=Architects Daughter;fontSource=https%3A%2F%2Ffonts.googleapis.com%2Fcss%3Ffamily%3DArchitects%2BDaughter;" vertex="1" parent="1">
          <mxGeometry x="125" y="482.5" width="70" height="30" as="geometry" />
        </mxCell>
        <mxCell id="doDWfjvMlDokcpQLiwFD-45" value="" style="rounded=1;whiteSpace=wrap;html=1;hachureGap=4;fontFamily=Architects Daughter;fontSource=https%3A%2F%2Ffonts.googleapis.com%2Fcss%3Ffamily%3DArchitects%2BDaughter;" vertex="1" parent="1">
          <mxGeometry x="110" y="730" width="100" height="120" as="geometry" />
        </mxCell>
        <mxCell id="doDWfjvMlDokcpQLiwFD-46" value="" style="image;sketch=0;aspect=fixed;html=1;points=[];align=center;fontSize=12;image=img/lib/mscae/Azure_Repos.svg;hachureGap=4;jiggle=2;curveFitting=1;fontFamily=Architects Daughter;fontSource=https%3A%2F%2Ffonts.googleapis.com%2Fcss%3Ffamily%3DArchitects%2BDaughter;" vertex="1" parent="1">
          <mxGeometry x="136.19" y="780" width="45" height="50" as="geometry" />
        </mxCell>
        <mxCell id="doDWfjvMlDokcpQLiwFD-47" value="&lt;font face=&quot;Helvetica&quot;&gt;CONFIG/&lt;br&gt;MANIFEST REPO&lt;span style=&quot;white-space: pre;&quot;&gt;&#x9;&lt;/span&gt;&lt;/font&gt;" style="text;html=1;align=center;verticalAlign=middle;resizable=0;points=[];autosize=1;strokeColor=none;fillColor=none;fontFamily=Architects Daughter;fontSource=https%3A%2F%2Ffonts.googleapis.com%2Fcss%3Ffamily%3DArchitects%2BDaughter;" vertex="1" parent="1">
          <mxGeometry x="100" y="730" width="130" height="40" as="geometry" />
        </mxCell>
        <mxCell id="doDWfjvMlDokcpQLiwFD-71" style="edgeStyle=orthogonalEdgeStyle;rounded=0;hachureGap=4;orthogonalLoop=1;jettySize=auto;html=1;exitX=0.5;exitY=1;exitDx=0;exitDy=0;entryX=0.5;entryY=0;entryDx=0;entryDy=0;fontFamily=Architects Daughter;fontSource=https%3A%2F%2Ffonts.googleapis.com%2Fcss%3Ffamily%3DArchitects%2BDaughter;flowAnimation=1;" edge="1" parent="1" source="doDWfjvMlDokcpQLiwFD-48" target="doDWfjvMlDokcpQLiwFD-68">
          <mxGeometry relative="1" as="geometry" />
        </mxCell>
        <mxCell id="doDWfjvMlDokcpQLiwFD-72" style="edgeStyle=orthogonalEdgeStyle;rounded=0;hachureGap=4;orthogonalLoop=1;jettySize=auto;html=1;exitX=0.5;exitY=1;exitDx=0;exitDy=0;entryX=0.5;entryY=0;entryDx=0;entryDy=0;fontFamily=Architects Daughter;fontSource=https%3A%2F%2Ffonts.googleapis.com%2Fcss%3Ffamily%3DArchitects%2BDaughter;flowAnimation=1;" edge="1" parent="1" source="doDWfjvMlDokcpQLiwFD-48" target="doDWfjvMlDokcpQLiwFD-59">
          <mxGeometry relative="1" as="geometry" />
        </mxCell>
        <mxCell id="doDWfjvMlDokcpQLiwFD-73" style="edgeStyle=orthogonalEdgeStyle;rounded=0;hachureGap=4;orthogonalLoop=1;jettySize=auto;html=1;exitX=0.5;exitY=1;exitDx=0;exitDy=0;entryX=0.5;entryY=0;entryDx=0;entryDy=0;fontFamily=Architects Daughter;fontSource=https%3A%2F%2Ffonts.googleapis.com%2Fcss%3Ffamily%3DArchitects%2BDaughter;flowAnimation=1;" edge="1" parent="1" source="doDWfjvMlDokcpQLiwFD-48" target="doDWfjvMlDokcpQLiwFD-65">
          <mxGeometry relative="1" as="geometry" />
        </mxCell>
        <mxCell id="doDWfjvMlDokcpQLiwFD-74" style="edgeStyle=orthogonalEdgeStyle;rounded=0;hachureGap=4;orthogonalLoop=1;jettySize=auto;html=1;exitX=0;exitY=0.5;exitDx=0;exitDy=0;entryX=1;entryY=0.75;entryDx=0;entryDy=0;fontFamily=Architects Daughter;fontSource=https%3A%2F%2Ffonts.googleapis.com%2Fcss%3Ffamily%3DArchitects%2BDaughter;flowAnimation=1;" edge="1" parent="1" source="doDWfjvMlDokcpQLiwFD-48" target="doDWfjvMlDokcpQLiwFD-45">
          <mxGeometry relative="1" as="geometry" />
        </mxCell>
        <mxCell id="doDWfjvMlDokcpQLiwFD-75" style="edgeStyle=orthogonalEdgeStyle;rounded=0;hachureGap=4;orthogonalLoop=1;jettySize=auto;html=1;exitX=1;exitY=0.5;exitDx=0;exitDy=0;entryX=0.5;entryY=1;entryDx=0;entryDy=0;fontFamily=Architects Daughter;fontSource=https%3A%2F%2Ffonts.googleapis.com%2Fcss%3Ffamily%3DArchitects%2BDaughter;flowAnimation=1;" edge="1" parent="1" source="doDWfjvMlDokcpQLiwFD-48" target="doDWfjvMlDokcpQLiwFD-52">
          <mxGeometry relative="1" as="geometry" />
        </mxCell>
        <mxCell id="doDWfjvMlDokcpQLiwFD-48" value="" style="rounded=1;whiteSpace=wrap;html=1;hachureGap=4;fontFamily=Architects Daughter;fontSource=https%3A%2F%2Ffonts.googleapis.com%2Fcss%3Ffamily%3DArchitects%2BDaughter;" vertex="1" parent="1">
          <mxGeometry x="360" y="780" width="150" height="80" as="geometry" />
        </mxCell>
        <mxCell id="doDWfjvMlDokcpQLiwFD-49" value="" style="image;aspect=fixed;html=1;points=[];align=center;fontSize=12;image=img/lib/azure2/management_governance/Azure_Arc.svg;sketch=1;hachureGap=4;jiggle=2;curveFitting=1;fontFamily=Architects Daughter;fontSource=https%3A%2F%2Ffonts.googleapis.com%2Fcss%3Ffamily%3DArchitects%2BDaughter;" vertex="1" parent="1">
          <mxGeometry x="370" y="800.41" width="50" height="37.68" as="geometry" />
        </mxCell>
        <mxCell id="doDWfjvMlDokcpQLiwFD-50" value="&lt;font face=&quot;Helvetica&quot;&gt;Argo CD&lt;/font&gt;" style="text;html=1;align=center;verticalAlign=middle;resizable=0;points=[];autosize=1;strokeColor=none;fillColor=none;fontFamily=Architects Daughter;fontSource=https%3A%2F%2Ffonts.googleapis.com%2Fcss%3Ffamily%3DArchitects%2BDaughter;" vertex="1" parent="1">
          <mxGeometry x="430" y="805" width="70" height="30" as="geometry" />
        </mxCell>
        <mxCell id="doDWfjvMlDokcpQLiwFD-52" value="" style="rounded=1;whiteSpace=wrap;html=1;hachureGap=4;fontFamily=Architects Daughter;fontSource=https%3A%2F%2Ffonts.googleapis.com%2Fcss%3Ffamily%3DArchitects%2BDaughter;" vertex="1" parent="1">
          <mxGeometry x="590" y="690" width="150" height="80" as="geometry" />
        </mxCell>
        <mxCell id="doDWfjvMlDokcpQLiwFD-54" value="" style="points=[];aspect=fixed;html=1;align=center;shadow=0;dashed=0;fillColor=#FF6A00;strokeColor=none;shape=mxgraph.alibaba_cloud.esign;hachureGap=4;fontFamily=Architects Daughter;fontSource=https%3A%2F%2Ffonts.googleapis.com%2Fcss%3Ffamily%3DArchitects%2BDaughter;" vertex="1" parent="1">
          <mxGeometry x="609" y="708" width="41.699999999999996" height="45.9" as="geometry" />
        </mxCell>
        <mxCell id="doDWfjvMlDokcpQLiwFD-55" value="&lt;font face=&quot;Helvetica&quot;&gt;图像注册表&lt;/font&gt;" style="text;html=1;align=center;verticalAlign=middle;resizable=0;points=[];autosize=1;strokeColor=none;fillColor=none;fontFamily=Architects Daughter;fontSource=https%3A%2F%2Ffonts.googleapis.com%2Fcss%3Ffamily%3DArchitects%2BDaughter;" vertex="1" parent="1">
          <mxGeometry x="645.7" y="715.95" width="80" height="30" as="geometry" />
        </mxCell>
        <mxCell id="doDWfjvMlDokcpQLiwFD-57" style="edgeStyle=orthogonalEdgeStyle;rounded=0;hachureGap=4;orthogonalLoop=1;jettySize=auto;html=1;exitX=1;exitY=0.5;exitDx=0;exitDy=0;entryX=0.553;entryY=0.013;entryDx=0;entryDy=0;entryPerimeter=0;fontFamily=Architects Daughter;fontSource=https%3A%2F%2Ffonts.googleapis.com%2Fcss%3Ffamily%3DArchitects%2BDaughter;flowAnimation=1;" edge="1" parent="1" source="doDWfjvMlDokcpQLiwFD-15" target="doDWfjvMlDokcpQLiwFD-52">
          <mxGeometry relative="1" as="geometry" />
        </mxCell>
        <mxCell id="doDWfjvMlDokcpQLiwFD-58" value="&lt;font face=&quot;Helvetica&quot;&gt;&lt;b style=&quot;background-color: rgb(255, 230, 204);&quot;&gt;准备镜像&lt;/b&gt;&lt;br&gt;将其推送到&lt;br&gt;Docker 注册表&lt;/font&gt;" style="text;html=1;align=center;verticalAlign=middle;resizable=0;points=[];autosize=1;strokeColor=none;fillColor=none;fontFamily=Architects Daughter;fontSource=https%3A%2F%2Ffonts.googleapis.com%2Fcss%3Ffamily%3DArchitects%2BDaughter;" vertex="1" parent="1">
          <mxGeometry x="660" y="512.5" width="100" height="60" as="geometry" />
        </mxCell>
        <mxCell id="doDWfjvMlDokcpQLiwFD-59" value="" style="rounded=1;whiteSpace=wrap;html=1;hachureGap=4;fontFamily=Architects Daughter;fontSource=https%3A%2F%2Ffonts.googleapis.com%2Fcss%3Ffamily%3DArchitects%2BDaughter;" vertex="1" parent="1">
          <mxGeometry x="180" y="960" width="140" height="80" as="geometry" />
        </mxCell>
        <mxCell id="doDWfjvMlDokcpQLiwFD-63" value="" style="aspect=fixed;sketch=0;html=1;dashed=0;whitespace=wrap;verticalLabelPosition=bottom;verticalAlign=top;fillColor=#2875E2;strokeColor=#ffffff;points=[[0.005,0.63,0],[0.1,0.2,0],[0.9,0.2,0],[0.5,0,0],[0.995,0.63,0],[0.72,0.99,0],[0.5,1,0],[0.28,0.99,0]];shape=mxgraph.kubernetes.icon2;prIcon=api;hachureGap=4;jiggle=2;curveFitting=1;fontFamily=Architects Daughter;fontSource=https%3A%2F%2Ffonts.googleapis.com%2Fcss%3Ffamily%3DArchitects%2BDaughter;" vertex="1" parent="1">
          <mxGeometry x="183.75" y="976" width="50" height="48" as="geometry" />
        </mxCell>
        <mxCell id="doDWfjvMlDokcpQLiwFD-64" value="&lt;font face=&quot;Helvetica&quot;&gt;&lt;b&gt;开发环境&lt;br&gt;（DEV）&lt;/b&gt;&lt;/font&gt;" style="text;html=1;align=center;verticalAlign=middle;resizable=0;points=[];autosize=1;strokeColor=none;fillColor=none;fontFamily=Architects Daughter;fontSource=https%3A%2F%2Ffonts.googleapis.com%2Fcss%3Ffamily%3DArchitects%2BDaughter;" vertex="1" parent="1">
          <mxGeometry x="240" y="980" width="70" height="40" as="geometry" />
        </mxCell>
        <mxCell id="doDWfjvMlDokcpQLiwFD-65" value="" style="rounded=1;whiteSpace=wrap;html=1;hachureGap=4;fontFamily=Architects Daughter;fontSource=https%3A%2F%2Ffonts.googleapis.com%2Fcss%3Ffamily%3DArchitects%2BDaughter;" vertex="1" parent="1">
          <mxGeometry x="530" y="960" width="140" height="80" as="geometry" />
        </mxCell>
        <mxCell id="doDWfjvMlDokcpQLiwFD-66" value="" style="aspect=fixed;sketch=0;html=1;dashed=0;whitespace=wrap;verticalLabelPosition=bottom;verticalAlign=top;fillColor=#2875E2;strokeColor=#ffffff;points=[[0.005,0.63,0],[0.1,0.2,0],[0.9,0.2,0],[0.5,0,0],[0.995,0.63,0],[0.72,0.99,0],[0.5,1,0],[0.28,0.99,0]];shape=mxgraph.kubernetes.icon2;prIcon=api;hachureGap=4;jiggle=2;curveFitting=1;fontFamily=Architects Daughter;fontSource=https%3A%2F%2Ffonts.googleapis.com%2Fcss%3Ffamily%3DArchitects%2BDaughter;" vertex="1" parent="1">
          <mxGeometry x="533.75" y="976" width="50" height="48" as="geometry" />
        </mxCell>
        <mxCell id="doDWfjvMlDokcpQLiwFD-67" value="&lt;font face=&quot;Helvetica&quot;&gt;&lt;b&gt;开发环境&lt;br&gt;（PROD）&lt;/b&gt;&lt;/font&gt;" style="text;html=1;align=center;verticalAlign=middle;resizable=0;points=[];autosize=1;strokeColor=none;fillColor=none;fontFamily=Architects Daughter;fontSource=https%3A%2F%2Ffonts.googleapis.com%2Fcss%3Ffamily%3DArchitects%2BDaughter;" vertex="1" parent="1">
          <mxGeometry x="585" y="980" width="80" height="40" as="geometry" />
        </mxCell>
        <mxCell id="doDWfjvMlDokcpQLiwFD-68" value="" style="rounded=1;whiteSpace=wrap;html=1;hachureGap=4;fontFamily=Architects Daughter;fontSource=https%3A%2F%2Ffonts.googleapis.com%2Fcss%3Ffamily%3DArchitects%2BDaughter;" vertex="1" parent="1">
          <mxGeometry x="365" y="960" width="140" height="80" as="geometry" />
        </mxCell>
        <mxCell id="doDWfjvMlDokcpQLiwFD-69" value="" style="aspect=fixed;sketch=0;html=1;dashed=0;whitespace=wrap;verticalLabelPosition=bottom;verticalAlign=top;fillColor=#2875E2;strokeColor=#ffffff;points=[[0.005,0.63,0],[0.1,0.2,0],[0.9,0.2,0],[0.5,0,0],[0.995,0.63,0],[0.72,0.99,0],[0.5,1,0],[0.28,0.99,0]];shape=mxgraph.kubernetes.icon2;prIcon=api;hachureGap=4;jiggle=2;curveFitting=1;fontFamily=Architects Daughter;fontSource=https%3A%2F%2Ffonts.googleapis.com%2Fcss%3Ffamily%3DArchitects%2BDaughter;" vertex="1" parent="1">
          <mxGeometry x="363.75" y="976" width="50" height="48" as="geometry" />
        </mxCell>
        <mxCell id="doDWfjvMlDokcpQLiwFD-70" value="&lt;font face=&quot;Helvetica&quot;&gt;&lt;b&gt;开发环境&lt;br&gt;（TEST）&lt;/b&gt;&lt;/font&gt;" style="text;html=1;align=center;verticalAlign=middle;resizable=0;points=[];autosize=1;strokeColor=none;fillColor=none;fontFamily=Architects Daughter;fontSource=https%3A%2F%2Ffonts.googleapis.com%2Fcss%3Ffamily%3DArchitects%2BDaughter;" vertex="1" parent="1">
          <mxGeometry x="415" y="980" width="80" height="40" as="geometry" />
        </mxCell>
        <mxCell id="doDWfjvMlDokcpQLiwFD-76" style="edgeStyle=orthogonalEdgeStyle;rounded=0;hachureGap=4;orthogonalLoop=1;jettySize=auto;html=1;exitX=0.5;exitY=1;exitDx=0;exitDy=0;entryX=0.454;entryY=0.025;entryDx=0;entryDy=0;entryPerimeter=0;fontFamily=Architects Daughter;fontSource=https%3A%2F%2Ffonts.googleapis.com%2Fcss%3Ffamily%3DArchitects%2BDaughter;flowAnimation=1;" edge="1" parent="1" source="doDWfjvMlDokcpQLiwFD-41" target="doDWfjvMlDokcpQLiwFD-47">
          <mxGeometry relative="1" as="geometry" />
        </mxCell>
        <mxCell id="doDWfjvMlDokcpQLiwFD-77" value="&lt;font face=&quot;Helvetica&quot;&gt;将配置推送到Git仓库&lt;/font&gt;" style="text;html=1;align=center;verticalAlign=middle;resizable=0;points=[];autosize=1;strokeColor=none;fillColor=none;fontFamily=Architects Daughter;fontSource=https%3A%2F%2Ffonts.googleapis.com%2Fcss%3Ffamily%3DArchitects%2BDaughter;" vertex="1" parent="1">
          <mxGeometry x="160" y="670" width="130" height="30" as="geometry" />
        </mxCell>
        <mxCell id="doDWfjvMlDokcpQLiwFD-78" value="&lt;font face=&quot;Helvetica&quot;&gt;收集部署配置&lt;/font&gt;" style="text;html=1;align=center;verticalAlign=middle;resizable=0;points=[];autosize=1;strokeColor=none;fillColor=none;fontFamily=Architects Daughter;fontSource=https%3A%2F%2Ffonts.googleapis.com%2Fcss%3Ffamily%3DArchitects%2BDaughter;" vertex="1" parent="1">
          <mxGeometry x="235" y="830" width="100" height="30" as="geometry" />
        </mxCell>
        <mxCell id="doDWfjvMlDokcpQLiwFD-79" value="&lt;b&gt;&lt;font style=&quot;background-color: rgb(255, 230, 204);&quot; face=&quot;Helvetica&quot;&gt;CD SYNC&lt;/font&gt;&lt;/b&gt;" style="text;html=1;align=center;verticalAlign=middle;resizable=0;points=[];autosize=1;strokeColor=none;fillColor=none;fontFamily=Architects Daughter;fontSource=https%3A%2F%2Ffonts.googleapis.com%2Fcss%3Ffamily%3DArchitects%2BDaughter;" vertex="1" parent="1">
          <mxGeometry x="250" y="780" width="80" height="30" as="geometry" />
        </mxCell>
        <mxCell id="doDWfjvMlDokcpQLiwFD-80" value="&lt;b&gt;&lt;font face=&quot;Helvetica&quot;&gt;PULL IMAGE&lt;/font&gt;&lt;/b&gt;" style="text;html=1;align=center;verticalAlign=middle;resizable=0;points=[];autosize=1;strokeColor=none;fillColor=none;fontFamily=Architects Daughter;fontSource=https%3A%2F%2Ffonts.googleapis.com%2Fcss%3Ffamily%3DArchitects%2BDaughter;labelBackgroundColor=#FFE6CC;" vertex="1" parent="1">
          <mxGeometry x="533.75" y="780" width="100" height="30" as="geometry" />
        </mxCell>
        <mxCell id="doDWfjvMlDokcpQLiwFD-81" value="&lt;b&gt;集中部署&lt;/b&gt;" style="ellipse;shape=cloud;whiteSpace=wrap;html=1;sketch=1;hachureGap=4;jiggle=2;curveFitting=1;fontFamily=Architects Daughter;fontSource=https%3A%2F%2Ffonts.googleapis.com%2Fcss%3Ffamily%3DArchitects%2BDaughter;fillColor=#fff2cc;strokeColor=#d6b656;" vertex="1" parent="1">
          <mxGeometry x="380" y="715.95" width="110" height="60" as="geometry" />
        </mxCell>
        <mxCell id="doDWfjvMlDokcpQLiwFD-82" value="&lt;b&gt;构建信息打印&lt;/b&gt;" style="ellipse;shape=cloud;whiteSpace=wrap;html=1;sketch=1;hachureGap=4;jiggle=2;curveFitting=1;fontFamily=Architects Daughter;fontSource=https%3A%2F%2Ffonts.googleapis.com%2Fcss%3Ffamily%3DArchitects%2BDaughter;fillColor=#fff2cc;strokeColor=#d6b656;" vertex="1" parent="1">
          <mxGeometry x="600" y="305" width="120" height="75" as="geometry" />
        </mxCell>
        <mxCell id="doDWfjvMlDokcpQLiwFD-84" value="&lt;font face=&quot;Helvetica&quot;&gt;&lt;b style=&quot;background-color: rgb(255, 230, 204);&quot;&gt;接收代码&lt;/b&gt;&lt;/font&gt;" style="text;html=1;align=center;verticalAlign=middle;resizable=0;points=[];autosize=1;strokeColor=none;fillColor=none;fontFamily=Architects Daughter;fontSource=https%3A%2F%2Ffonts.googleapis.com%2Fcss%3Ffamily%3DArchitects%2BDaughter;" vertex="1" parent="1">
          <mxGeometry x="375" y="270" width="70" height="30" as="geometry" />
        </mxCell>
        <mxCell id="doDWfjvMlDokcpQLiwFD-85" value="&lt;font face=&quot;Helvetica&quot;&gt;&lt;b&gt;将其发送到&lt;br&gt;GitHub Action 进行构建&lt;/b&gt;&lt;/font&gt;" style="text;html=1;align=left;verticalAlign=middle;resizable=0;points=[];autosize=1;strokeColor=none;fillColor=none;fontFamily=Architects Daughter;fontSource=https%3A%2F%2Ffonts.googleapis.com%2Fcss%3Ffamily%3DArchitects%2BDaughter;" vertex="1" parent="1">
          <mxGeometry x="470" y="265" width="160" height="40" as="geometry" />
        </mxCell>
      </root>
    </mxGraphModel>
  </diagram>
</mxfile>
